<mxfile host="app.diagrams.net" modified="2023-03-30T04:27:42.337Z" agent="Mozilla/5.0 (Windows NT 10.0; Win64; x64) AppleWebKit/537.36 (KHTML, like Gecko) Chrome/111.0.0.0 Safari/537.36" etag="56T7sKnF9ySfIJSTvxDx" version="21.1.2" type="github">
  <diagram name="Page-1" id="k8hdcT68XvUGeNnr-WGf">
    <mxGraphModel dx="1026" dy="538" grid="1" gridSize="10" guides="1" tooltips="1" connect="1" arrows="1" fold="1" page="1" pageScale="1" pageWidth="1200" pageHeight="1920" math="0" shadow="0">
      <root>
        <mxCell id="0" />
        <mxCell id="1" parent="0" />
        <mxCell id="0ty-pGvWSgXegqHMyrzF-22" style="edgeStyle=orthogonalEdgeStyle;rounded=0;orthogonalLoop=1;jettySize=auto;html=1;exitX=0.5;exitY=0.5;exitDx=0;exitDy=0;exitPerimeter=0;entryX=0;entryY=0.5;entryDx=0;entryDy=0;" edge="1" parent="1" source="0ty-pGvWSgXegqHMyrzF-2" target="0ty-pGvWSgXegqHMyrzF-5">
          <mxGeometry relative="1" as="geometry" />
        </mxCell>
        <mxCell id="0ty-pGvWSgXegqHMyrzF-23" style="edgeStyle=orthogonalEdgeStyle;rounded=0;orthogonalLoop=1;jettySize=auto;html=1;exitX=0;exitY=1;exitDx=0;exitDy=0;exitPerimeter=0;" edge="1" parent="1" source="0ty-pGvWSgXegqHMyrzF-2">
          <mxGeometry relative="1" as="geometry">
            <mxPoint x="20" y="450" as="targetPoint" />
          </mxGeometry>
        </mxCell>
        <mxCell id="0ty-pGvWSgXegqHMyrzF-2" value="client&lt;br&gt;" style="shape=umlActor;verticalLabelPosition=bottom;verticalAlign=top;html=1;outlineConnect=0;" vertex="1" parent="1">
          <mxGeometry x="20" y="195" width="30" height="60" as="geometry" />
        </mxCell>
        <mxCell id="0ty-pGvWSgXegqHMyrzF-5" value="" style="whiteSpace=wrap;html=1;aspect=fixed;" vertex="1" parent="1">
          <mxGeometry x="200" y="100" width="250" height="250" as="geometry" />
        </mxCell>
        <mxCell id="0ty-pGvWSgXegqHMyrzF-6" value="&lt;b style=&quot;font-size: 18px;&quot;&gt;services&lt;/b&gt;" style="text;html=1;strokeColor=none;fillColor=none;align=center;verticalAlign=middle;whiteSpace=wrap;rounded=0;fontSize=18;" vertex="1" parent="1">
          <mxGeometry x="295" y="60" width="60" height="30" as="geometry" />
        </mxCell>
        <mxCell id="0ty-pGvWSgXegqHMyrzF-15" style="edgeStyle=orthogonalEdgeStyle;rounded=0;orthogonalLoop=1;jettySize=auto;html=1;exitX=1;exitY=0.5;exitDx=0;exitDy=0;entryX=0;entryY=0.5;entryDx=0;entryDy=0;" edge="1" parent="1" source="0ty-pGvWSgXegqHMyrzF-7" target="0ty-pGvWSgXegqHMyrzF-12">
          <mxGeometry relative="1" as="geometry">
            <mxPoint x="490" y="220" as="targetPoint" />
            <Array as="points">
              <mxPoint x="440" y="133" />
              <mxPoint x="440" y="180" />
              <mxPoint x="500" y="180" />
              <mxPoint x="500" y="215" />
            </Array>
          </mxGeometry>
        </mxCell>
        <mxCell id="0ty-pGvWSgXegqHMyrzF-7" value="licensee" style="rounded=1;whiteSpace=wrap;html=1;" vertex="1" parent="1">
          <mxGeometry x="260" y="113" width="120" height="40" as="geometry" />
        </mxCell>
        <mxCell id="0ty-pGvWSgXegqHMyrzF-16" style="edgeStyle=orthogonalEdgeStyle;rounded=0;orthogonalLoop=1;jettySize=auto;html=1;exitX=1;exitY=0.5;exitDx=0;exitDy=0;entryX=0;entryY=0.622;entryDx=0;entryDy=0;entryPerimeter=0;" edge="1" parent="1" source="0ty-pGvWSgXegqHMyrzF-8" target="0ty-pGvWSgXegqHMyrzF-12">
          <mxGeometry relative="1" as="geometry">
            <mxPoint x="510" y="230" as="targetPoint" />
            <Array as="points">
              <mxPoint x="470" y="195" />
              <mxPoint x="470" y="230" />
            </Array>
          </mxGeometry>
        </mxCell>
        <mxCell id="0ty-pGvWSgXegqHMyrzF-8" value="certifications" style="rounded=1;whiteSpace=wrap;html=1;" vertex="1" parent="1">
          <mxGeometry x="260" y="175" width="120" height="40" as="geometry" />
        </mxCell>
        <mxCell id="0ty-pGvWSgXegqHMyrzF-17" style="edgeStyle=orthogonalEdgeStyle;rounded=0;orthogonalLoop=1;jettySize=auto;html=1;exitX=1;exitY=0.5;exitDx=0;exitDy=0;entryX=0.043;entryY=0.743;entryDx=0;entryDy=0;entryPerimeter=0;" edge="1" parent="1" source="0ty-pGvWSgXegqHMyrzF-9" target="0ty-pGvWSgXegqHMyrzF-12">
          <mxGeometry relative="1" as="geometry">
            <mxPoint x="510" y="250" as="targetPoint" />
            <Array as="points">
              <mxPoint x="425" y="253" />
              <mxPoint x="425" y="240" />
              <mxPoint x="470" y="240" />
              <mxPoint x="470" y="243" />
            </Array>
          </mxGeometry>
        </mxCell>
        <mxCell id="0ty-pGvWSgXegqHMyrzF-9" value="service" style="rounded=1;whiteSpace=wrap;html=1;" vertex="1" parent="1">
          <mxGeometry x="260" y="233" width="120" height="40" as="geometry" />
        </mxCell>
        <mxCell id="0ty-pGvWSgXegqHMyrzF-21" style="edgeStyle=orthogonalEdgeStyle;rounded=0;orthogonalLoop=1;jettySize=auto;html=1;exitX=1;exitY=0.25;exitDx=0;exitDy=0;entryX=0;entryY=1;entryDx=0;entryDy=0;" edge="1" parent="1" source="0ty-pGvWSgXegqHMyrzF-10" target="0ty-pGvWSgXegqHMyrzF-12">
          <mxGeometry relative="1" as="geometry">
            <mxPoint x="530" y="280" as="targetPoint" />
            <Array as="points">
              <mxPoint x="380" y="280" />
              <mxPoint x="510" y="280" />
              <mxPoint x="510" y="256" />
            </Array>
          </mxGeometry>
        </mxCell>
        <mxCell id="0ty-pGvWSgXegqHMyrzF-10" value="service" style="rounded=1;whiteSpace=wrap;html=1;" vertex="1" parent="1">
          <mxGeometry x="260" y="294" width="120" height="40" as="geometry" />
        </mxCell>
        <mxCell id="0ty-pGvWSgXegqHMyrzF-40" style="edgeStyle=orthogonalEdgeStyle;rounded=0;orthogonalLoop=1;jettySize=auto;html=1;exitX=0.5;exitY=0.5;exitDx=0;exitDy=0;exitPerimeter=0;" edge="1" parent="1" source="0ty-pGvWSgXegqHMyrzF-11">
          <mxGeometry relative="1" as="geometry">
            <mxPoint x="735" y="310" as="targetPoint" />
          </mxGeometry>
        </mxCell>
        <mxCell id="0ty-pGvWSgXegqHMyrzF-11" value="partner&lt;br&gt;" style="shape=umlActor;verticalLabelPosition=bottom;verticalAlign=top;html=1;outlineConnect=0;" vertex="1" parent="1">
          <mxGeometry x="710" y="185" width="30" height="60" as="geometry" />
        </mxCell>
        <mxCell id="0ty-pGvWSgXegqHMyrzF-14" style="edgeStyle=orthogonalEdgeStyle;rounded=0;orthogonalLoop=1;jettySize=auto;html=1;exitX=1;exitY=0.5;exitDx=0;exitDy=0;" edge="1" parent="1" source="0ty-pGvWSgXegqHMyrzF-12" target="0ty-pGvWSgXegqHMyrzF-11">
          <mxGeometry relative="1" as="geometry" />
        </mxCell>
        <mxCell id="0ty-pGvWSgXegqHMyrzF-12" value="assigning work to appropriate partner" style="ellipse;whiteSpace=wrap;html=1;aspect=fixed;" vertex="1" parent="1">
          <mxGeometry x="520" y="157.5" width="115" height="115" as="geometry" />
        </mxCell>
        <mxCell id="0ty-pGvWSgXegqHMyrzF-34" style="edgeStyle=orthogonalEdgeStyle;rounded=0;orthogonalLoop=1;jettySize=auto;html=1;exitX=1;exitY=0.25;exitDx=0;exitDy=0;" edge="1" parent="1" source="0ty-pGvWSgXegqHMyrzF-24">
          <mxGeometry relative="1" as="geometry">
            <mxPoint x="250" y="500" as="targetPoint" />
          </mxGeometry>
        </mxCell>
        <mxCell id="0ty-pGvWSgXegqHMyrzF-24" value="" style="whiteSpace=wrap;html=1;aspect=fixed;" vertex="1" parent="1">
          <mxGeometry x="10" y="450" width="200" height="200" as="geometry" />
        </mxCell>
        <mxCell id="0ty-pGvWSgXegqHMyrzF-25" value="resgistration page" style="text;html=1;strokeColor=none;fillColor=none;align=center;verticalAlign=middle;whiteSpace=wrap;rounded=0;labelBackgroundColor=#d5ec27;" vertex="1" parent="1">
          <mxGeometry x="70" y="410" width="60" height="30" as="geometry" />
        </mxCell>
        <UserObject label="firstname" placeholders="1" name="Variable" id="0ty-pGvWSgXegqHMyrzF-28">
          <mxCell style="text;html=1;strokeColor=none;fillColor=none;align=center;verticalAlign=middle;whiteSpace=wrap;overflow=hidden;" vertex="1" parent="1">
            <mxGeometry x="60" y="478" width="80" height="20" as="geometry" />
          </mxCell>
        </UserObject>
        <UserObject label="lastname" placeholders="1" name="Variable" id="0ty-pGvWSgXegqHMyrzF-29">
          <mxCell style="text;html=1;strokeColor=none;fillColor=none;align=center;verticalAlign=middle;whiteSpace=wrap;overflow=hidden;" vertex="1" parent="1">
            <mxGeometry x="60" y="498" width="80" height="20" as="geometry" />
          </mxCell>
        </UserObject>
        <UserObject label="ph.no" placeholders="1" name="Variable" id="0ty-pGvWSgXegqHMyrzF-30">
          <mxCell style="text;html=1;strokeColor=none;fillColor=none;align=center;verticalAlign=middle;whiteSpace=wrap;overflow=hidden;" vertex="1" parent="1">
            <mxGeometry x="60" y="518" width="80" height="20" as="geometry" />
          </mxCell>
        </UserObject>
        <UserObject label="email id" placeholders="1" name="Variable" id="0ty-pGvWSgXegqHMyrzF-31">
          <mxCell style="text;html=1;strokeColor=none;fillColor=none;align=center;verticalAlign=middle;whiteSpace=wrap;overflow=hidden;" vertex="1" parent="1">
            <mxGeometry x="60" y="538" width="80" height="20" as="geometry" />
          </mxCell>
        </UserObject>
        <UserObject label="password" placeholders="1" name="Variable" id="0ty-pGvWSgXegqHMyrzF-32">
          <mxCell style="text;html=1;strokeColor=none;fillColor=none;align=center;verticalAlign=middle;whiteSpace=wrap;overflow=hidden;" vertex="1" parent="1">
            <mxGeometry x="60" y="558" width="80" height="20" as="geometry" />
          </mxCell>
        </UserObject>
        <UserObject label="repeat password" placeholders="1" name="Variable" id="0ty-pGvWSgXegqHMyrzF-33">
          <mxCell style="text;html=1;strokeColor=none;fillColor=none;align=center;verticalAlign=middle;whiteSpace=wrap;overflow=hidden;" vertex="1" parent="1">
            <mxGeometry x="60" y="583" width="80" height="35" as="geometry" />
          </mxCell>
        </UserObject>
        <mxCell id="0ty-pGvWSgXegqHMyrzF-60" style="edgeStyle=orthogonalEdgeStyle;rounded=0;orthogonalLoop=1;jettySize=auto;html=1;exitX=0.5;exitY=1;exitDx=0;exitDy=0;entryX=0.25;entryY=0;entryDx=0;entryDy=0;" edge="1" parent="1" source="0ty-pGvWSgXegqHMyrzF-35" target="0ty-pGvWSgXegqHMyrzF-59">
          <mxGeometry relative="1" as="geometry" />
        </mxCell>
        <mxCell id="0ty-pGvWSgXegqHMyrzF-35" value="" style="whiteSpace=wrap;html=1;aspect=fixed;" vertex="1" parent="1">
          <mxGeometry x="250" y="450" width="200" height="200" as="geometry" />
        </mxCell>
        <UserObject label="email id or ph.no" placeholders="1" name="Variable" id="0ty-pGvWSgXegqHMyrzF-36">
          <mxCell style="text;html=1;strokeColor=none;fillColor=none;align=center;verticalAlign=middle;whiteSpace=wrap;overflow=hidden;" vertex="1" parent="1">
            <mxGeometry x="310" y="492" width="80" height="32" as="geometry" />
          </mxCell>
        </UserObject>
        <UserObject label="password" placeholders="1" name="Variable" id="0ty-pGvWSgXegqHMyrzF-37">
          <mxCell style="text;html=1;strokeColor=none;fillColor=none;align=center;verticalAlign=middle;whiteSpace=wrap;overflow=hidden;" vertex="1" parent="1">
            <mxGeometry x="310" y="538" width="80" height="32" as="geometry" />
          </mxCell>
        </UserObject>
        <mxCell id="0ty-pGvWSgXegqHMyrzF-38" value="login page" style="text;html=1;strokeColor=none;fillColor=none;align=center;verticalAlign=middle;whiteSpace=wrap;rounded=0;labelBackgroundColor=#d5ec27;" vertex="1" parent="1">
          <mxGeometry x="320" y="410" width="60" height="30" as="geometry" />
        </mxCell>
        <mxCell id="0ty-pGvWSgXegqHMyrzF-41" value="vetting process" style="text;html=1;strokeColor=none;fillColor=none;align=center;verticalAlign=middle;whiteSpace=wrap;rounded=0;" vertex="1" parent="1">
          <mxGeometry x="690" y="370" width="60" height="30" as="geometry" />
        </mxCell>
        <mxCell id="0ty-pGvWSgXegqHMyrzF-55" style="edgeStyle=orthogonalEdgeStyle;rounded=0;orthogonalLoop=1;jettySize=auto;html=1;exitX=0.5;exitY=1;exitDx=0;exitDy=0;" edge="1" parent="1" source="0ty-pGvWSgXegqHMyrzF-43">
          <mxGeometry relative="1" as="geometry">
            <mxPoint x="693" y="680" as="targetPoint" />
          </mxGeometry>
        </mxCell>
        <mxCell id="0ty-pGvWSgXegqHMyrzF-43" value="" style="whiteSpace=wrap;html=1;aspect=fixed;" vertex="1" parent="1">
          <mxGeometry x="580" y="410" width="225" height="225" as="geometry" />
        </mxCell>
        <mxCell id="0ty-pGvWSgXegqHMyrzF-44" value="company name" style="text;html=1;strokeColor=none;fillColor=none;align=center;verticalAlign=middle;whiteSpace=wrap;rounded=0;" vertex="1" parent="1">
          <mxGeometry x="663" y="420" width="60" height="30" as="geometry" />
        </mxCell>
        <mxCell id="0ty-pGvWSgXegqHMyrzF-45" value="email, ph.no" style="text;html=1;strokeColor=none;fillColor=none;align=center;verticalAlign=middle;whiteSpace=wrap;rounded=0;" vertex="1" parent="1">
          <mxGeometry x="663" y="452" width="60" height="30" as="geometry" />
        </mxCell>
        <mxCell id="0ty-pGvWSgXegqHMyrzF-46" value="services provided" style="text;html=1;strokeColor=none;fillColor=none;align=center;verticalAlign=middle;whiteSpace=wrap;rounded=0;" vertex="1" parent="1">
          <mxGeometry x="590" y="508" width="60" height="30" as="geometry" />
        </mxCell>
        <mxCell id="0ty-pGvWSgXegqHMyrzF-48" value="clients" style="text;html=1;strokeColor=none;fillColor=none;align=center;verticalAlign=middle;whiteSpace=wrap;rounded=0;" vertex="1" parent="1">
          <mxGeometry x="660" y="492" width="60" height="30" as="geometry" />
        </mxCell>
        <mxCell id="0ty-pGvWSgXegqHMyrzF-49" value="exp" style="text;html=1;strokeColor=none;fillColor=none;align=center;verticalAlign=middle;whiteSpace=wrap;rounded=0;" vertex="1" parent="1">
          <mxGeometry x="660" y="507.5" width="60" height="30" as="geometry" />
        </mxCell>
        <mxCell id="0ty-pGvWSgXegqHMyrzF-50" value="background" style="text;html=1;strokeColor=none;fillColor=none;align=center;verticalAlign=middle;whiteSpace=wrap;rounded=0;" vertex="1" parent="1">
          <mxGeometry x="660" y="525" width="60" height="30" as="geometry" />
        </mxCell>
        <mxCell id="0ty-pGvWSgXegqHMyrzF-53" value="kyc documents" style="text;html=1;strokeColor=none;fillColor=none;align=center;verticalAlign=middle;whiteSpace=wrap;rounded=0;" vertex="1" parent="1">
          <mxGeometry x="660" y="553" width="60" height="30" as="geometry" />
        </mxCell>
        <mxCell id="0ty-pGvWSgXegqHMyrzF-70" style="edgeStyle=orthogonalEdgeStyle;rounded=0;orthogonalLoop=1;jettySize=auto;html=1;exitX=0.5;exitY=1;exitDx=0;exitDy=0;" edge="1" parent="1" source="0ty-pGvWSgXegqHMyrzF-56" target="0ty-pGvWSgXegqHMyrzF-67">
          <mxGeometry relative="1" as="geometry" />
        </mxCell>
        <mxCell id="0ty-pGvWSgXegqHMyrzF-56" value="" style="rounded=1;whiteSpace=wrap;textOpacity=0;" vertex="1" parent="1">
          <mxGeometry x="630" y="680" width="120" height="150" as="geometry" />
        </mxCell>
        <mxCell id="0ty-pGvWSgXegqHMyrzF-54" value="after successfull verification the partner status was changed into verified partner" style="text;html=1;strokeColor=none;fillColor=none;align=center;verticalAlign=middle;whiteSpace=wrap;rounded=0;" vertex="1" parent="1">
          <mxGeometry x="660" y="740" width="60" height="30" as="geometry" />
        </mxCell>
        <mxCell id="0ty-pGvWSgXegqHMyrzF-58" style="edgeStyle=orthogonalEdgeStyle;rounded=0;orthogonalLoop=1;jettySize=auto;html=1;exitX=0.75;exitY=1;exitDx=0;exitDy=0;entryX=0.5;entryY=0;entryDx=0;entryDy=0;" edge="1" parent="1" source="0ty-pGvWSgXegqHMyrzF-57" target="0ty-pGvWSgXegqHMyrzF-41">
          <mxGeometry relative="1" as="geometry" />
        </mxCell>
        <mxCell id="0ty-pGvWSgXegqHMyrzF-57" value="resgistration page" style="text;html=1;strokeColor=none;fillColor=none;align=center;verticalAlign=middle;whiteSpace=wrap;rounded=0;labelBackgroundColor=#d5ec27;" vertex="1" parent="1">
          <mxGeometry x="705" y="310" width="60" height="30" as="geometry" />
        </mxCell>
        <mxCell id="0ty-pGvWSgXegqHMyrzF-59" value="" style="rounded=1;whiteSpace=wrap;html=1;arcSize=14;" vertex="1" parent="1">
          <mxGeometry x="20" y="760" width="390" height="190" as="geometry" />
        </mxCell>
        <mxCell id="0ty-pGvWSgXegqHMyrzF-61" value="&lt;font style=&quot;font-size: 19px;&quot;&gt;dashboard&lt;br&gt;workroom&lt;br&gt;&lt;/font&gt;" style="text;html=1;strokeColor=none;fillColor=none;align=center;verticalAlign=middle;whiteSpace=wrap;rounded=0;" vertex="1" parent="1">
          <mxGeometry x="30" y="770" width="120" height="30" as="geometry" />
        </mxCell>
        <mxCell id="0ty-pGvWSgXegqHMyrzF-62" value="" style="rounded=1;whiteSpace=wrap;html=1;" vertex="1" parent="1">
          <mxGeometry x="200" y="770" width="190" height="170" as="geometry" />
        </mxCell>
        <mxCell id="0ty-pGvWSgXegqHMyrzF-65" style="edgeStyle=orthogonalEdgeStyle;rounded=0;orthogonalLoop=1;jettySize=auto;html=1;exitX=1;exitY=0.5;exitDx=0;exitDy=0;entryX=0;entryY=0.5;entryDx=0;entryDy=0;" edge="1" parent="1" source="0ty-pGvWSgXegqHMyrzF-63" target="0ty-pGvWSgXegqHMyrzF-62">
          <mxGeometry relative="1" as="geometry" />
        </mxCell>
        <mxCell id="0ty-pGvWSgXegqHMyrzF-63" value="add a project" style="text;html=1;strokeColor=none;fillColor=none;align=center;verticalAlign=middle;whiteSpace=wrap;rounded=0;fontSize=17;" vertex="1" parent="1">
          <mxGeometry x="40" y="840" width="70" height="40" as="geometry" />
        </mxCell>
        <mxCell id="0ty-pGvWSgXegqHMyrzF-66" value="&lt;font style=&quot;font-size: 17px;&quot;&gt;project requirements form&lt;/font&gt;" style="text;html=1;strokeColor=none;fillColor=none;align=center;verticalAlign=middle;whiteSpace=wrap;rounded=0;" vertex="1" parent="1">
          <mxGeometry x="260" y="840" width="60" height="30" as="geometry" />
        </mxCell>
        <mxCell id="0ty-pGvWSgXegqHMyrzF-67" value="" style="rounded=1;whiteSpace=wrap;html=1;arcSize=14;" vertex="1" parent="1">
          <mxGeometry x="520" y="880" width="390" height="190" as="geometry" />
        </mxCell>
        <mxCell id="0ty-pGvWSgXegqHMyrzF-69" value="&lt;font style=&quot;font-size: 20px;&quot;&gt;dashboard for partner&lt;/font&gt;" style="text;html=1;strokeColor=none;fillColor=none;align=center;verticalAlign=middle;whiteSpace=wrap;rounded=0;" vertex="1" parent="1">
          <mxGeometry x="560" y="900" width="60" height="30" as="geometry" />
        </mxCell>
        <mxCell id="0ty-pGvWSgXegqHMyrzF-71" value="" style="rounded=1;whiteSpace=wrap;html=1;" vertex="1" parent="1">
          <mxGeometry x="700" y="890" width="190" height="170" as="geometry" />
        </mxCell>
        <mxCell id="0ty-pGvWSgXegqHMyrzF-72" value="&lt;font style=&quot;font-size: 17px;&quot;&gt;communicate to cleints and manage all projects&lt;/font&gt;" style="text;html=1;strokeColor=none;fillColor=none;align=center;verticalAlign=middle;whiteSpace=wrap;rounded=0;" vertex="1" parent="1">
          <mxGeometry x="765" y="960" width="60" height="30" as="geometry" />
        </mxCell>
        <mxCell id="0ty-pGvWSgXegqHMyrzF-75" style="edgeStyle=orthogonalEdgeStyle;rounded=0;orthogonalLoop=1;jettySize=auto;html=1;exitX=1;exitY=0.25;exitDx=0;exitDy=0;entryX=0;entryY=0.5;entryDx=0;entryDy=0;" edge="1" parent="1" source="0ty-pGvWSgXegqHMyrzF-73" target="0ty-pGvWSgXegqHMyrzF-74">
          <mxGeometry relative="1" as="geometry" />
        </mxCell>
        <mxCell id="0ty-pGvWSgXegqHMyrzF-73" value="payments" style="rounded=1;whiteSpace=wrap;html=1;" vertex="1" parent="1">
          <mxGeometry x="20" y="1130" width="160" height="50" as="geometry" />
        </mxCell>
        <mxCell id="0ty-pGvWSgXegqHMyrzF-77" style="edgeStyle=orthogonalEdgeStyle;rounded=0;orthogonalLoop=1;jettySize=auto;html=1;exitX=1;exitY=0.25;exitDx=0;exitDy=0;" edge="1" parent="1" source="0ty-pGvWSgXegqHMyrzF-74" target="0ty-pGvWSgXegqHMyrzF-76">
          <mxGeometry relative="1" as="geometry" />
        </mxCell>
        <mxCell id="0ty-pGvWSgXegqHMyrzF-74" value="escrow account" style="rounded=1;whiteSpace=wrap;html=1;" vertex="1" parent="1">
          <mxGeometry x="260" y="1120" width="120" height="60" as="geometry" />
        </mxCell>
        <mxCell id="0ty-pGvWSgXegqHMyrzF-80" style="edgeStyle=orthogonalEdgeStyle;rounded=0;orthogonalLoop=1;jettySize=auto;html=1;exitX=1;exitY=0.25;exitDx=0;exitDy=0;entryX=0;entryY=0.5;entryDx=0;entryDy=0;" edge="1" parent="1" source="0ty-pGvWSgXegqHMyrzF-76" target="0ty-pGvWSgXegqHMyrzF-79">
          <mxGeometry relative="1" as="geometry" />
        </mxCell>
        <mxCell id="0ty-pGvWSgXegqHMyrzF-76" value="after project completed" style="rounded=1;whiteSpace=wrap;html=1;" vertex="1" parent="1">
          <mxGeometry x="450" y="1120" width="120" height="60" as="geometry" />
        </mxCell>
        <mxCell id="0ty-pGvWSgXegqHMyrzF-78" value="money credited into partner account" style="rounded=1;whiteSpace=wrap;html=1;" vertex="1" parent="1">
          <mxGeometry x="805" y="1120" width="120" height="60" as="geometry" />
        </mxCell>
        <mxCell id="0ty-pGvWSgXegqHMyrzF-81" value="" style="edgeStyle=orthogonalEdgeStyle;rounded=0;orthogonalLoop=1;jettySize=auto;html=1;" edge="1" parent="1" source="0ty-pGvWSgXegqHMyrzF-79" target="0ty-pGvWSgXegqHMyrzF-78">
          <mxGeometry relative="1" as="geometry" />
        </mxCell>
        <mxCell id="0ty-pGvWSgXegqHMyrzF-83" value="" style="edgeStyle=orthogonalEdgeStyle;rounded=0;orthogonalLoop=1;jettySize=auto;html=1;" edge="1" parent="1" source="0ty-pGvWSgXegqHMyrzF-79" target="0ty-pGvWSgXegqHMyrzF-82">
          <mxGeometry relative="1" as="geometry" />
        </mxCell>
        <mxCell id="0ty-pGvWSgXegqHMyrzF-79" value="client mark as&amp;nbsp;&lt;br&gt;complete" style="rhombus;whiteSpace=wrap;html=1;" vertex="1" parent="1">
          <mxGeometry x="637" y="1100" width="103" height="100" as="geometry" />
        </mxCell>
        <mxCell id="0ty-pGvWSgXegqHMyrzF-82" value="money was go back to client account" style="rounded=1;whiteSpace=wrap;html=1;" vertex="1" parent="1">
          <mxGeometry x="623" y="1230" width="120" height="60" as="geometry" />
        </mxCell>
        <mxCell id="0ty-pGvWSgXegqHMyrzF-84" value="no" style="text;html=1;strokeColor=none;fillColor=none;align=center;verticalAlign=middle;whiteSpace=wrap;rounded=0;" vertex="1" parent="1">
          <mxGeometry x="680" y="1190" width="60" height="30" as="geometry" />
        </mxCell>
        <mxCell id="0ty-pGvWSgXegqHMyrzF-85" value="yes" style="text;html=1;strokeColor=none;fillColor=none;align=center;verticalAlign=middle;whiteSpace=wrap;rounded=0;" vertex="1" parent="1">
          <mxGeometry x="720" y="1110" width="60" height="30" as="geometry" />
        </mxCell>
        <mxCell id="0ty-pGvWSgXegqHMyrzF-86" value="&lt;font style=&quot;font-size: 22px;&quot;&gt;Payment Process&lt;/font&gt;" style="text;html=1;strokeColor=none;fillColor=none;align=center;verticalAlign=middle;whiteSpace=wrap;rounded=0;" vertex="1" parent="1">
          <mxGeometry x="70" y="1070" width="60" height="30" as="geometry" />
        </mxCell>
      </root>
    </mxGraphModel>
  </diagram>
</mxfile>
